<svg viewBox="0 0 32 32" xmlns="http://www.w3.org/2000/svg" xmlns:xlink="http://www.w3.org/1999/xlink" width="32.000000" height="32.000000" fill="none">
	<rect id="Frame" width="32.000000" height="32.000000" x="0.000000" y="0.000000" fill="rgb(255,255,255)" fill-opacity="0" />
	<path id="Vector" d="M0 0L32 0L32 32L0 32L0 0Z" fill-rule="nonzero" />
	<path id="Vector" d="M12 5.33301L14.6667 11.9997L11.3333 13.9997C12.7613 16.895 15.1046 19.2384 18 20.6663L20 17.333L26.6667 19.9997L26.6667 25.333C26.6667 26.0403 26.3857 26.7185 25.8856 27.2186C25.3855 27.7187 24.7072 27.9997 24 27.9997C18.799 27.6836 13.8935 25.475 10.2091 21.7906C6.52467 18.1061 4.31607 13.2007 4 7.99967C4 7.29243 4.28095 6.61415 4.78105 6.11406C5.28115 5.61396 5.95942 5.33301 6.66667 5.33301L12 5.33301Z" fill-rule="nonzero" stroke="rgb(255,255,255)" stroke-linecap="round" stroke-linejoin="round" stroke-width="2" />
	<path id="Vector" d="M20 11.9997L26.6667 5.33301" fill-rule="nonzero" stroke="rgb(255,255,255)" stroke-linecap="round" stroke-linejoin="round" stroke-width="2" />
	<path id="Vector" d="M20 6.66699L20 12.0003L25.3333 12.0003" fill-rule="nonzero" stroke="rgb(255,255,255)" stroke-linecap="round" stroke-linejoin="round" stroke-width="2" />
</svg>
