<svg viewBox="0 0 50 50" xmlns="http://www.w3.org/2000/svg" xmlns:xlink="http://www.w3.org/1999/xlink" width="50.000000" height="50.000000" fill="none">
	<rect id="Frame" width="50.000000" height="50.000000" x="0.000000" y="0.000000" fill="rgb(255,255,255)" fill-opacity="0" />
	<path id="Vector" d="M0 0L50 0L50 50L0 50L0 0Z" fill-rule="nonzero" />
	<g id="Group 227">
		<path id="Vector" d="M38.3337 33L38.3337 43.6667C38.3337 45.0812 37.7718 46.4377 36.7716 47.4379C35.7714 48.4381 34.4148 49 33.0003 49L17.0003 49C15.5858 49 14.2293 48.4381 13.2291 47.4379C12.2289 46.4377 11.667 45.0812 11.667 43.6667L11.667 33L38.3337 33Z" fill-rule="nonzero" stroke="rgb(54,39,22)" stroke-linecap="round" stroke-linejoin="round" stroke-width="2.000000" />
		<path id="Vector" d="M25 17C25 12.7565 23.3143 8.68687 20.3137 5.68629C17.3131 2.68571 13.2435 1 9 1L1 1L1 6.33333C1 10.5768 2.68571 14.6465 5.68629 17.647C8.68687 20.6476 12.7565 22.3333 17 22.3333L25 22.3333" fill-rule="nonzero" stroke="rgb(54,39,22)" stroke-linecap="round" stroke-linejoin="round" stroke-width="2.000000" />
		<path id="Vector" d="M25 22.3334C25 18.0899 26.6857 14.0202 29.6863 11.0197C32.6869 8.01908 36.7565 6.33337 41 6.33337L49 6.33337L49 9.00004C49 13.2435 47.3143 17.3132 44.3137 20.3137C41.3131 23.3143 37.2435 25 33 25L25 25" fill-rule="nonzero" stroke="rgb(54,39,22)" stroke-linecap="round" stroke-linejoin="round" stroke-width="2.000000" />
		<path id="Vector" d="M16 0L0 0" stroke="rgb(54,39,22)" stroke-linecap="round" stroke-linejoin="round" stroke-width="2.000000" transform="matrix(0,1,-1,0,25,17)" />
	</g>
</svg>
